<?xml version="1.0" encoding="iso-8859-1"?>
<!-- Generator: Adobe Illustrator 19.0.0, SVG Export Plug-In . SVG Version: 6.00 Build 0)  -->
<svg version="1.1" fill='white' id="Capa_1" xmlns="http://www.w3.org/2000/svg" xmlns:xlink="http://www.w3.org/1999/xlink" x="0px" y="0px"
	 viewBox="0 0 58.002 58.002" style="enable-background:new 0 0 58.002 58.002;" xml:space="preserve">
<g>
	<g>
		<rect x="25.655" y="37.002" width="6" height="2"/>
		<circle cx="21.655" cy="29.002" r="2"/>
		<path d="M48.645,48.002h-5.99h-8v-3.549c0.4-0.128,0.788-0.282,1.168-0.451h12.332c0.353,0,0.68-0.187,0.86-0.489
			c0.18-0.304,0.187-0.68,0.018-0.989l-5.866-10.755c2.015-0.581,3.488-2.263,3.488-4.267c0-2.104-1.619-3.861-3.79-4.351
			C55.064,9.548,54.519,8.294,54.25,7.692c-0.189-0.426-0.609-0.69-1.096-0.69h-9.21l3.062-4.976c0.217-0.352,0.194-0.8-0.055-1.129
			c-0.25-0.328-0.677-0.468-1.071-0.357c0,0-3.496,0.999-8.988,2.497c-2.867,0.782-5.446,1.689-7.287,2.391l2.401-3.901
			c0.21-0.341,0.196-0.774-0.035-1.102c-0.23-0.326-0.633-0.49-1.026-0.4c-0.592,0.127-14.522,3.173-17.2,9.064
			c-2.162,4.757,0.065,11.013,1.076,13.394c-0.096,0.154-0.166,0.325-0.166,0.52v0.091c-2.279,0.418-4,2.236-4,4.409
			c0,2.004,1.473,3.686,3.488,4.267L8.277,42.523c-0.169,0.31-0.162,0.686,0.017,0.989c0.181,0.303,0.508,0.489,0.86,0.489h12.332
			c0.38,0.17,0.768,0.323,1.168,0.451v3.549h-6h-7.99c-2.763,0-5.01,2.243-5.01,5v4c0,0.553,0.447,1,1,1h48c0.553,0,1-0.447,1-1v-4
			C53.655,50.245,51.407,48.002,48.645,48.002z M16.655,33.502v-1.5v-2v-5v-1h24v1v5v2v1.5c0,5.238-4.262,9.5-9.5,9.5h-5
			C20.916,43.002,16.655,38.74,16.655,33.502z M38.873,42.002c2.002-1.82,3.364-4.328,3.696-7.153l3.901,7.153H38.873z
			 M44.655,27.502c0,1.085-0.839,2.001-2,2.347v-4.693C43.816,25.501,44.655,26.417,44.655,27.502z M15.565,9.916
			c1.565-3.443,8.886-6.1,13.457-7.356l-2.719,4.417c-0.229,0.374-0.19,0.852,0.099,1.183c0.289,0.33,0.758,0.432,1.159,0.256
			c0.044-0.019,4.492-1.986,9.856-3.449c2.737-0.746,4.979-1.369,6.543-1.807l-2.657,4.317c-0.19,0.309-0.198,0.696-0.021,1.013
			c0.177,0.315,0.511,0.512,0.873,0.512h9.759c-1.464,2.312-6.174,7.947-10.706,13H16.796C15.996,20.184,13.641,14.149,15.565,9.916
			z M12.655,27.502c0-1.085,0.839-2.001,2-2.347v4.693C13.493,29.503,12.655,28.587,12.655,27.502z M10.839,42.002l3.901-7.153
			c0.332,2.825,1.693,5.333,3.696,7.153H10.839z M24.655,44.893c0.492,0.065,0.99,0.109,1.5,0.109h5c0.51,0,1.008-0.045,1.5-0.109
			v3.109h-8V44.893z M23.655,50.002h10h5.467l-9.467,5.826l-9.467-5.826H23.655z M5.655,53.002c0-1.654,1.351-3,3.01-3h7.707l9.75,6
			H5.655V53.002z M51.655,56.002H33.188l9.75-6h5.707c1.659,0,3.01,1.346,3.01,3V56.002z"/>
		<circle cx="35.655" cy="29.002" r="2"/>
	</g>
</g>
<g>
</g>
<g>
</g>
<g>
</g>
<g>
</g>
<g>
</g>
<g>
</g>
<g>
</g>
<g>
</g>
<g>
</g>
<g>
</g>
<g>
</g>
<g>
</g>
<g>
</g>
<g>
</g>
<g>
</g>
</svg>
